<svg width="256" height="256" viewBox="0 0 256 256" fill="none" xmlns="http://www.w3.org/2000/svg">
<g id="Arch-Dark 4" clip-path="url(#clip0_3_130)">
<g id="Clip path group">
<mask id="mask0_3_130" style="mask-type:luminance" maskUnits="userSpaceOnUse" x="0" y="0" width="256" height="256">
<g id="clip0_33_628">
<path id="Vector" d="M256 0H0V256H256V0Z" fill="white"/>
</g>
</mask>
<g mask="url(#mask0_3_130)">
<g id="Group">
<path id="Vector_2" d="M196 0H60C26.8629 0 0 26.8629 0 60V196C0 229.137 26.8629 256 60 256H196C229.137 256 256 229.137 256 196V60C256 26.8629 229.137 0 196 0Z" fill="#242938"/>
</g>
</g>
</g>
<path id="Vector_3" d="M214.849 96.7577C211.261 118.649 199.809 138.59 182.53 153.035C165.252 167.481 143.268 175.493 120.49 175.646C115.876 175.819 111.256 175.546 106.698 174.832C97.1642 173.256 88.4743 168.547 82.0772 161.49C75.6802 154.434 71.9627 145.457 71.5448 136.056C71.6369 125.571 75.9621 115.541 83.587 108.132C91.2114 100.723 101.524 96.5286 112.299 96.4545C123.075 96.3805 133.447 100.433 141.179 107.736C148.91 115.04 153.381 125.009 153.625 135.491C153.798 142.112 150.85 147.92 144.793 148.087C138.321 148.087 135.287 143.594 135.287 137.537V120.709C135.289 117.988 134.186 115.376 132.217 113.443C130.248 111.51 127.574 110.413 124.777 110.392H110.28C106.064 110.363 101.907 111.364 98.1898 113.302C94.4729 115.24 91.3144 118.053 89.0032 121.485C86.6917 124.917 85.3007 128.858 84.9575 132.948C84.6143 137.037 85.3297 141.145 87.0384 144.897C88.7471 148.648 91.3945 151.923 94.739 154.422C98.0834 156.921 102.018 158.565 106.184 159.204C110.349 159.842 114.612 159.454 118.584 158.075C122.556 156.696 126.109 154.371 128.919 151.312L129.426 150.577L129.933 151.393C131.677 153.698 133.979 155.548 136.635 156.779C139.29 158.009 142.217 158.582 145.155 158.447C150.392 158.077 155.273 155.729 158.755 151.905C162.238 148.081 164.046 143.084 163.794 137.98C163.845 133.601 163.34 129.232 162.292 124.973C159.604 112.941 152.433 102.303 142.163 95.1112C131.893 87.9193 119.251 84.6815 106.673 86.0221C94.0951 87.3627 82.4726 93.1868 74.0463 102.371C65.6193 111.557 60.9848 123.453 61.036 135.765C61.1977 148.822 66.5537 161.309 75.9788 170.603C85.403 179.897 98.1628 185.274 111.576 185.604C111.576 185.604 115.373 185.94 119.653 185.844C140.458 185.716 160.794 179.812 178.269 168.826C178.518 168.658 178.767 168.994 178.601 169.239C170.093 178.157 159.689 185.164 148.114 189.77C136.539 194.377 124.071 196.472 111.578 195.911C103.411 196.055 95.2988 194.588 87.7305 191.598C80.1622 188.608 73.2948 184.157 67.5428 178.514C61.7902 172.87 57.2719 166.152 54.2604 158.763C51.249 151.374 49.8068 143.468 50.0208 135.522C50.0247 126.049 52.2992 116.707 56.6635 108.239C61.0278 99.7709 67.3617 92.41 75.1618 86.7412C85.6442 79.2296 98.312 75.1603 111.33 75.1226H130.787C138.387 75.1171 145.903 73.5715 152.856 70.5842C159.809 67.5969 166.046 63.2334 171.17 57.7717C171.279 57.6549 171.423 57.575 171.581 57.5436C171.739 57.5103 171.904 57.5262 172.053 57.5892C172.201 57.6522 172.325 57.759 172.408 57.8945C172.491 58.0305 172.528 58.1882 172.515 58.3465C171.69 66.8561 168.779 75.0489 164.026 82.2367C163.955 82.3616 163.923 82.5036 163.935 82.6457C163.946 82.7877 163.999 82.9234 164.088 83.0364C164.177 83.1493 164.297 83.2347 164.434 83.2823C164.572 83.3299 164.721 83.3377 164.863 83.3048C173.844 81.3305 182.224 77.3323 189.328 71.6319C196.432 65.9315 202.061 58.6881 205.763 50.4845C205.858 50.3379 205.987 50.2161 206.141 50.1299C206.297 50.0447 206.472 50 206.65 50C206.828 50 207.003 50.0447 207.158 50.1299C207.312 50.2156 207.442 50.3373 207.535 50.4845C215.161 64.6988 217.733 80.9707 214.849 96.7577ZM111.526 120.499C109.288 120.498 107.078 120.981 105.055 121.912C103.031 122.843 101.246 124.199 99.8256 125.882C98.4058 127.566 97.3873 129.534 96.8436 131.647C96.3 133.76 96.2446 135.963 96.6816 138.099C97.2656 140.956 98.7069 143.58 100.823 145.64C102.94 147.699 105.637 149.102 108.572 149.671C110.767 150.096 113.032 150.041 115.203 149.512C117.374 148.983 119.397 147.992 121.127 146.61C122.856 145.228 124.25 143.49 125.206 141.522C126.163 139.553 126.658 137.402 126.658 135.225V121.476C126.644 121.213 126.531 120.965 126.34 120.778C126.148 120.592 125.893 120.482 125.622 120.469L111.526 120.499Z" fill="white"/>
</g>
<defs>
<clipPath id="clip0_3_130">
<rect width="256" height="256" fill="white"/>
</clipPath>
</defs>
</svg>
