<svg width="256" height="256" viewBox="0 0 256 256" fill="none" xmlns="http://www.w3.org/2000/svg">
<g id="Arch-Dark 3" clip-path="url(#clip0_3_114)">
<g id="Clip path group">
<mask id="mask0_3_114" style="mask-type:luminance" maskUnits="userSpaceOnUse" x="0" y="0" width="256" height="256">
<g id="clip0_33_628">
<path id="Vector" d="M256 0H0V256H256V0Z" fill="white"/>
</g>
</mask>
<g mask="url(#mask0_3_114)">
<g id="Group">
<path id="Vector_2" d="M196 0H60C26.8629 0 0 26.8629 0 60V196C0 229.137 26.8629 256 60 256H196C229.137 256 256 229.137 256 196V60C256 26.8629 229.137 0 196 0Z" fill="#512BD4"/>
</g>
</g>
</g>
<path id="Vector_3" d="M229.572 95.6465C225.119 122.635 210.907 147.221 189.465 165.03C168.024 182.839 140.743 192.717 112.476 192.907C106.75 193.119 101.017 192.783 95.3597 191.902C83.529 189.959 72.7452 184.153 64.8067 175.454C56.8682 166.754 52.2549 155.686 51.7364 144.096C51.8507 131.17 57.2181 118.804 66.6802 109.669C76.1419 100.535 88.9399 95.364 102.311 95.2727C115.683 95.1814 128.555 100.177 138.149 109.181C147.744 118.186 153.292 130.476 153.595 143.4C153.809 151.563 150.152 158.723 142.635 158.93C134.603 158.93 130.838 153.389 130.838 145.923V125.175C130.841 121.82 129.472 118.6 127.028 116.217C124.585 113.834 121.266 112.482 117.796 112.456H99.8057C94.5729 112.421 89.4144 113.654 84.8018 116.043C80.1892 118.433 76.2697 121.901 73.4016 126.133C70.533 130.364 68.8069 135.222 68.381 140.264C67.9551 145.306 68.8429 150.371 70.9633 154.996C73.0837 159.621 76.3691 163.658 80.5194 166.74C84.6697 169.821 89.5526 171.848 94.7219 172.635C99.8911 173.421 105.182 172.943 110.11 171.243C115.039 169.543 119.448 166.677 122.936 162.905L123.565 161.998L124.194 163.005C126.358 165.847 129.215 168.128 132.51 169.645C135.806 171.162 139.438 171.869 143.084 171.702C149.583 171.245 155.64 168.351 159.962 163.636C164.283 158.922 166.527 152.761 166.214 146.469C166.277 141.07 165.651 135.684 164.35 130.433C161.014 115.599 152.116 102.483 139.371 93.6166C126.627 84.7498 110.938 80.758 95.329 82.4108C79.7204 84.0636 65.2973 91.244 54.8406 102.568C44.383 113.892 38.6317 128.558 38.6953 143.738C38.8959 159.835 45.5426 175.23 57.2387 186.688C68.9338 198.146 84.7683 204.776 101.414 205.183C101.414 205.183 106.125 205.597 111.437 205.479C137.255 205.321 162.491 198.042 184.178 184.498C184.486 184.29 184.795 184.705 184.589 185.007C174.031 196.002 161.12 204.64 146.756 210.32C132.391 215.999 116.919 218.582 101.416 217.89C91.2813 218.068 81.2142 216.259 71.8222 212.573C62.4302 208.887 53.908 203.399 46.7699 196.442C39.6312 189.484 34.0241 181.201 30.287 172.091C26.5499 162.981 24.7602 153.235 25.0258 143.438C25.0306 131.759 27.8532 120.242 33.2692 109.801C38.6852 99.3614 46.5453 90.2863 56.2249 83.2974C69.2332 74.0365 84.9534 69.0195 101.108 68.9731H125.253C134.685 68.9662 144.012 67.0607 152.64 63.3778C161.269 59.6948 169.009 54.3152 175.368 47.5815C175.502 47.4375 175.681 47.339 175.878 47.3003C176.074 47.2592 176.279 47.2789 176.463 47.3565C176.647 47.4342 176.801 47.5659 176.904 47.7329C177.007 47.9006 177.053 48.0951 177.037 48.2902C176.013 58.7815 172.4 68.8822 166.502 77.7439C166.414 77.8978 166.375 78.073 166.389 78.2481C166.402 78.4231 166.469 78.5906 166.579 78.7299C166.689 78.869 166.838 78.9742 167.009 79.033C167.18 79.0917 167.364 79.1013 167.54 79.0607C178.686 76.6266 189.085 71.6974 197.901 64.6695C206.717 57.6416 213.703 48.7113 218.297 38.5973C218.414 38.4166 218.574 38.2665 218.766 38.1601C218.958 38.0552 219.176 38 219.397 38C219.618 38 219.835 38.0552 220.027 38.1601C220.219 38.2658 220.38 38.4159 220.496 38.5973C229.959 56.1219 233.15 76.183 229.572 95.6465ZM101.352 124.916C98.5747 124.916 95.8318 125.511 93.3209 126.658C90.8101 127.806 88.5938 129.478 86.8318 131.553C85.0698 133.629 83.8059 136.056 83.1313 138.661C82.4566 141.265 82.3879 143.982 82.9301 146.615C83.6549 150.137 85.4436 153.372 88.0701 155.912C90.6966 158.451 94.0431 160.181 97.6863 160.882C100.41 161.406 103.22 161.339 105.914 160.686C108.608 160.034 111.119 158.812 113.266 157.108C115.412 155.405 117.141 153.262 118.328 150.835C119.515 148.408 120.13 145.756 120.13 143.071V126.121C120.113 125.797 119.972 125.491 119.735 125.261C119.497 125.031 119.18 124.895 118.845 124.879L101.352 124.916Z" fill="white"/>
</g>
<defs>
<clipPath id="clip0_3_114">
<rect width="256" height="256" fill="white"/>
</clipPath>
</defs>
</svg>
