<svg width="256" height="256" viewBox="0 0 256 256" fill="none" xmlns="http://www.w3.org/2000/svg">
<path d="M196 0H60C26.8629 0 0 26.8629 0 60V196C0 229.137 26.8629 256 60 256H196C229.137 256 256 229.137 256 196V60C256 26.8629 229.137 0 196 0Z" fill="#242938"/>
<path d="M126 204.4L36.6 98.2L75 60.9176H186.8L222.2 99.2L126 204.4Z" fill="#182439"/>
<path fill-rule="evenodd" clip-rule="evenodd" d="M168.25 152.421H86.862V165.277H168.25V152.421Z" fill="#B7A73F"/>
<path fill-rule="evenodd" clip-rule="evenodd" d="M159.404 175.931H96.3562V163.075H159.404V175.931H159.404ZM114.54 152.703H80.803V149.084H114.54V152.703ZM168.736 159.096L48.2252 89.5188L60.342 68.5318L180.853 138.109L168.736 159.096ZM207.656 110.419L130.425 65.8294L132.914 61.5184L210.145 106.108L207.656 110.419Z" fill="#B7A73F"/>
<path fill-rule="evenodd" clip-rule="evenodd" d="M212.657 103.183L135.426 58.5935L132.937 62.9045L210.168 107.494L212.657 103.183Z" fill="#B7A73F"/>
<path fill-rule="evenodd" clip-rule="evenodd" d="M212.658 105.208L135.427 60.6183L137.916 56.3073L215.147 100.897L212.658 105.208ZM205.695 112.068L124.021 64.9129L125.981 61.5177L207.655 108.672L205.695 112.068Z" fill="#B7A73F"/>
<path fill-rule="evenodd" clip-rule="evenodd" d="M205.695 111.398L120.885 62.4335L118.925 65.8287L203.735 114.794L205.695 111.398Z" fill="#B7A73F"/>
<path fill-rule="evenodd" clip-rule="evenodd" d="M201.775 118.19L111.084 65.8297L113.573 61.5187L204.264 113.879L201.775 118.19ZM83.6374 96.7303L56.3872 80.9975L64.443 67.0445L91.6932 82.7773L83.6374 96.7301V96.7303Z" fill="#B7A73F"/>
<path fill-rule="evenodd" clip-rule="evenodd" d="M188.527 55.828H71.6756L28.983 98.301L125.91 215.021L133.642 206.345L229.587 98.6998L188.527 55.8282V55.828ZM184.259 65.828L215.973 98.9438L126.178 199.69L42.5156 98.9438L75.8022 65.828H184.258H184.259Z" fill="#ECD11C"/>
<path fill-rule="evenodd" clip-rule="evenodd" d="M188.527 55.828H71.6756L28.983 98.301L125.91 215.021L133.642 206.345L229.587 98.6998L188.527 55.8282V55.828ZM184.259 65.828L215.973 98.9438L126.178 199.69L42.5156 98.9438L75.8022 65.828H184.258H184.259Z" fill="#ECD11C"/>
</svg>
